<mxfile host="app.diagrams.net" modified="2023-09-02T03:35:41.412Z" agent="Mozilla/5.0 (Macintosh; Intel Mac OS X 10_15_7) AppleWebKit/537.36 (KHTML, like Gecko) Chrome/116.0.0.0 Safari/537.36" etag="uPklveKN-REM7votXhIv" version="21.7.1" type="github">
  <diagram name="Page-1" id="kltpETyp6ktUoRGK4CSb">
    <mxGraphModel dx="1629" dy="960" grid="1" gridSize="10" guides="1" tooltips="1" connect="1" arrows="1" fold="1" page="1" pageScale="1" pageWidth="827" pageHeight="1169" math="0" shadow="0">
      <root>
        <mxCell id="0" />
        <mxCell id="1" parent="0" />
        <mxCell id="sBol7n5pafzCE7PvQ6kI-10" value="&lt;font face=&quot;Comic Sans MS&quot;&gt;a.js&lt;/font&gt;" style="swimlane;fontStyle=0;childLayout=stackLayout;horizontal=1;startSize=30;horizontalStack=0;resizeParent=1;resizeParentMax=0;resizeLast=0;collapsible=1;marginBottom=0;whiteSpace=wrap;html=1;sketch=1;hachureGap=4;jiggle=2;curveFitting=1;fontFamily=Architects Daughter;fontSource=https%3A%2F%2Ffonts.googleapis.com%2Fcss%3Ffamily%3DArchitects%2BDaughter;fontSize=20;fillColor=#fff2cc;strokeColor=#d6b656;" vertex="1" parent="1">
          <mxGeometry x="250" y="200" width="370" height="400" as="geometry" />
        </mxCell>
        <mxCell id="sBol7n5pafzCE7PvQ6kI-11" value="&lt;font face=&quot;Comic Sans MS&quot;&gt;export const a = 1&lt;br&gt;export function b() {}&lt;br&gt;&lt;/font&gt;" style="text;strokeColor=none;fillColor=none;align=left;verticalAlign=middle;spacingLeft=4;spacingRight=4;overflow=hidden;points=[[0,0.5],[1,0.5]];portConstraint=eastwest;rotatable=0;whiteSpace=wrap;html=1;fontSize=20;fontFamily=Architects Daughter;" vertex="1" parent="sBol7n5pafzCE7PvQ6kI-10">
          <mxGeometry y="30" width="370" height="60" as="geometry" />
        </mxCell>
        <mxCell id="sBol7n5pafzCE7PvQ6kI-14" value="&lt;font face=&quot;Comic Sans MS&quot;&gt;const c = &#39;c&#39;&lt;br&gt;export default c&lt;/font&gt;" style="text;strokeColor=none;fillColor=none;align=left;verticalAlign=middle;spacingLeft=4;spacingRight=4;overflow=hidden;points=[[0,0.5],[1,0.5]];portConstraint=eastwest;rotatable=0;whiteSpace=wrap;html=1;fontSize=20;fontFamily=Architects Daughter;" vertex="1" parent="sBol7n5pafzCE7PvQ6kI-10">
          <mxGeometry y="90" width="370" height="110" as="geometry" />
        </mxCell>
        <mxCell id="sBol7n5pafzCE7PvQ6kI-17" value="&lt;font face=&quot;Comic Sans MS&quot;&gt;export { d = 123, e = true}&lt;/font&gt;" style="text;strokeColor=none;fillColor=none;align=left;verticalAlign=middle;spacingLeft=4;spacingRight=4;overflow=hidden;points=[[0,0.5],[1,0.5]];portConstraint=eastwest;rotatable=0;whiteSpace=wrap;html=1;fontSize=20;fontFamily=Architects Daughter;" vertex="1" parent="sBol7n5pafzCE7PvQ6kI-10">
          <mxGeometry y="200" width="370" height="80" as="geometry" />
        </mxCell>
        <mxCell id="sBol7n5pafzCE7PvQ6kI-15" value="&lt;font face=&quot;Comic Sans MS&quot;&gt;export { f, g } from &#39;b.js&#39;&lt;/font&gt;" style="text;strokeColor=none;fillColor=none;align=left;verticalAlign=middle;spacingLeft=4;spacingRight=4;overflow=hidden;points=[[0,0.5],[1,0.5]];portConstraint=eastwest;rotatable=0;whiteSpace=wrap;html=1;fontSize=20;fontFamily=Architects Daughter;" vertex="1" parent="sBol7n5pafzCE7PvQ6kI-10">
          <mxGeometry y="280" width="370" height="80" as="geometry" />
        </mxCell>
        <mxCell id="sBol7n5pafzCE7PvQ6kI-13" value="&lt;font face=&quot;Comic Sans MS&quot;&gt;export * from &#39;c.js&#39;&lt;/font&gt;" style="text;strokeColor=none;fillColor=none;align=left;verticalAlign=middle;spacingLeft=4;spacingRight=4;overflow=hidden;points=[[0,0.5],[1,0.5]];portConstraint=eastwest;rotatable=0;whiteSpace=wrap;html=1;fontSize=20;fontFamily=Architects Daughter;" vertex="1" parent="sBol7n5pafzCE7PvQ6kI-10">
          <mxGeometry y="360" width="370" height="40" as="geometry" />
        </mxCell>
        <mxCell id="sBol7n5pafzCE7PvQ6kI-19" style="edgeStyle=orthogonalEdgeStyle;rounded=0;sketch=1;hachureGap=4;jiggle=2;curveFitting=1;orthogonalLoop=1;jettySize=auto;html=1;exitX=1.003;exitY=0.031;exitDx=0;exitDy=0;entryX=0.003;entryY=0.363;entryDx=0;entryDy=0;entryPerimeter=0;fontFamily=Architects Daughter;fontSource=https%3A%2F%2Ffonts.googleapis.com%2Fcss%3Ffamily%3DArchitects%2BDaughter;fontSize=16;exitPerimeter=0;" edge="1" parent="1" source="sBol7n5pafzCE7PvQ6kI-10">
          <mxGeometry relative="1" as="geometry">
            <mxPoint x="811.5299999999997" y="341.5" as="targetPoint" />
            <Array as="points">
              <mxPoint x="660" y="212" />
              <mxPoint x="660" y="342" />
            </Array>
          </mxGeometry>
        </mxCell>
        <mxCell id="sBol7n5pafzCE7PvQ6kI-20" value="&lt;font face=&quot;Comic Sans MS&quot;&gt;compile&lt;/font&gt;" style="edgeLabel;html=1;align=center;verticalAlign=middle;resizable=0;points=[];fontSize=20;fontFamily=Architects Daughter;labelBackgroundColor=#FFFFFF;" vertex="1" connectable="0" parent="sBol7n5pafzCE7PvQ6kI-19">
          <mxGeometry x="-0.0091" y="1" relative="1" as="geometry">
            <mxPoint x="79" y="-12" as="offset" />
          </mxGeometry>
        </mxCell>
        <mxCell id="sBol7n5pafzCE7PvQ6kI-23" value="" style="rounded=0;whiteSpace=wrap;html=1;sketch=1;hachureGap=4;jiggle=2;curveFitting=1;fontFamily=Architects Daughter;fontSource=https%3A%2F%2Ffonts.googleapis.com%2Fcss%3Ffamily%3DArchitects%2BDaughter;fontSize=20;fillColor=#d5e8d4;strokeColor=#82b366;" vertex="1" parent="1">
          <mxGeometry x="820" y="200" width="550" height="550" as="geometry" />
        </mxCell>
        <mxCell id="sBol7n5pafzCE7PvQ6kI-21" value="&lt;font face=&quot;Comic Sans MS&quot;&gt;window.__modules__ = {&lt;br&gt;&amp;nbsp; &amp;nbsp; &#39;a.js&#39;: {&lt;br&gt;&amp;nbsp; &amp;nbsp; &amp;nbsp; &amp;nbsp; &amp;nbsp;a: 1,&lt;br&gt;&amp;nbsp; &amp;nbsp; &amp;nbsp; &amp;nbsp; &amp;nbsp;b() {},&lt;br&gt;&lt;br&gt;&amp;nbsp; &amp;nbsp; &amp;nbsp; &amp;nbsp; &amp;nbsp;__default__: &#39;c&#39;,&lt;br&gt;&lt;br&gt;&amp;nbsp; &amp;nbsp; &amp;nbsp; &amp;nbsp; &amp;nbsp;d: 123,&lt;br&gt;&amp;nbsp; &amp;nbsp; &amp;nbsp; &amp;nbsp; &amp;nbsp;e: true,&lt;br&gt;&lt;br&gt;&amp;nbsp; &amp;nbsp; &amp;nbsp; &amp;nbsp; &amp;nbsp;f: window.__modules__[&#39;b.js&#39;].f,&lt;br&gt;&amp;nbsp; &amp;nbsp; &amp;nbsp; &amp;nbsp; &amp;nbsp;g: window.__modules__[&#39;b.js&#39;].g,&lt;br&gt;&lt;br&gt;&amp;nbsp; &amp;nbsp; &amp;nbsp; &amp;nbsp; &amp;nbsp;[key]:&amp;nbsp;window.__modules__[&#39;c.js&#39;][key],&lt;br&gt;&amp;nbsp; &amp;nbsp; },&lt;br&gt;&amp;nbsp; &amp;nbsp; &#39;b.js&#39;: { ... },&lt;br&gt;&amp;nbsp; &amp;nbsp; &#39;c.js&#39;: { ... },&lt;br&gt;&amp;nbsp; &amp;nbsp; ...&lt;br&gt;}&lt;br&gt;&lt;br&gt;&lt;/font&gt;" style="text;html=1;strokeColor=none;fillColor=none;align=left;verticalAlign=middle;whiteSpace=wrap;rounded=0;fontSize=20;fontFamily=Architects Daughter;" vertex="1" parent="1">
          <mxGeometry x="864" y="288.75" width="463" height="422.5" as="geometry" />
        </mxCell>
        <mxCell id="sBol7n5pafzCE7PvQ6kI-31" style="edgeStyle=orthogonalEdgeStyle;rounded=0;sketch=1;hachureGap=4;jiggle=2;curveFitting=1;orthogonalLoop=1;jettySize=auto;html=1;exitX=1;exitY=0.25;exitDx=0;exitDy=0;fontFamily=Architects Daughter;fontSource=https%3A%2F%2Ffonts.googleapis.com%2Fcss%3Ffamily%3DArchitects%2BDaughter;fontSize=16;" edge="1" parent="1" source="sBol7n5pafzCE7PvQ6kI-28">
          <mxGeometry relative="1" as="geometry">
            <mxPoint x="820" y="340" as="targetPoint" />
            <Array as="points">
              <mxPoint x="660" y="765" />
              <mxPoint x="660" y="340" />
            </Array>
          </mxGeometry>
        </mxCell>
        <mxCell id="sBol7n5pafzCE7PvQ6kI-33" style="edgeStyle=orthogonalEdgeStyle;rounded=0;sketch=1;hachureGap=4;jiggle=2;curveFitting=1;orthogonalLoop=1;jettySize=auto;html=1;exitX=1;exitY=0.5;exitDx=0;exitDy=0;entryX=0;entryY=0.25;entryDx=0;entryDy=0;fontFamily=Architects Daughter;fontSource=https%3A%2F%2Ffonts.googleapis.com%2Fcss%3Ffamily%3DArchitects%2BDaughter;fontSize=16;" edge="1" parent="1" source="sBol7n5pafzCE7PvQ6kI-24" target="sBol7n5pafzCE7PvQ6kI-23">
          <mxGeometry relative="1" as="geometry">
            <Array as="points">
              <mxPoint x="660" y="680" />
              <mxPoint x="660" y="338" />
            </Array>
          </mxGeometry>
        </mxCell>
        <mxCell id="sBol7n5pafzCE7PvQ6kI-24" value="&lt;font face=&quot;Comic Sans MS&quot;&gt;b.js&lt;/font&gt;" style="swimlane;fontStyle=0;childLayout=stackLayout;horizontal=1;startSize=30;horizontalStack=0;resizeParent=1;resizeParentMax=0;resizeLast=0;collapsible=1;marginBottom=0;whiteSpace=wrap;html=1;sketch=1;hachureGap=4;jiggle=2;curveFitting=1;fontFamily=Architects Daughter;fontSource=https%3A%2F%2Ffonts.googleapis.com%2Fcss%3Ffamily%3DArchitects%2BDaughter;fontSize=20;fillColor=#fff2cc;strokeColor=#d6b656;" vertex="1" parent="1">
          <mxGeometry x="250" y="650" width="370" height="60" as="geometry" />
        </mxCell>
        <mxCell id="sBol7n5pafzCE7PvQ6kI-25" value="&lt;font face=&quot;Comic Sans MS&quot;&gt;...&lt;/font&gt;" style="text;strokeColor=none;fillColor=none;align=center;verticalAlign=middle;spacingLeft=4;spacingRight=4;overflow=hidden;points=[[0,0.5],[1,0.5]];portConstraint=eastwest;rotatable=0;whiteSpace=wrap;html=1;fontSize=20;fontFamily=Architects Daughter;" vertex="1" parent="sBol7n5pafzCE7PvQ6kI-24">
          <mxGeometry y="30" width="370" height="30" as="geometry" />
        </mxCell>
        <mxCell id="sBol7n5pafzCE7PvQ6kI-28" value="&lt;font face=&quot;Comic Sans MS&quot;&gt;c.js&lt;/font&gt;" style="swimlane;fontStyle=0;childLayout=stackLayout;horizontal=1;startSize=30;horizontalStack=0;resizeParent=1;resizeParentMax=0;resizeLast=0;collapsible=1;marginBottom=0;whiteSpace=wrap;html=1;sketch=1;hachureGap=4;jiggle=2;curveFitting=1;fontFamily=Architects Daughter;fontSource=https%3A%2F%2Ffonts.googleapis.com%2Fcss%3Ffamily%3DArchitects%2BDaughter;fontSize=20;fillColor=#fff2cc;strokeColor=#d6b656;" vertex="1" parent="1">
          <mxGeometry x="250" y="750" width="370" height="60" as="geometry" />
        </mxCell>
        <mxCell id="sBol7n5pafzCE7PvQ6kI-29" value="&lt;font face=&quot;Comic Sans MS&quot;&gt;...&lt;/font&gt;" style="text;strokeColor=none;fillColor=none;align=center;verticalAlign=middle;spacingLeft=4;spacingRight=4;overflow=hidden;points=[[0,0.5],[1,0.5]];portConstraint=eastwest;rotatable=0;whiteSpace=wrap;html=1;fontSize=20;fontFamily=Architects Daughter;" vertex="1" parent="sBol7n5pafzCE7PvQ6kI-28">
          <mxGeometry y="30" width="370" height="30" as="geometry" />
        </mxCell>
      </root>
    </mxGraphModel>
  </diagram>
</mxfile>
